<?xml version="1.0" standalone="no"?>
<!DOCTYPE svg PUBLIC "-//W3C//DTD SVG 20010904//EN"
 "http://www.w3.org/TR/2001/REC-SVG-20010904/DTD/svg10.dtd">
<svg version="1.0" xmlns="http://www.w3.org/2000/svg"
 width="500.000000pt" height="500.000000pt" viewBox="0 0 500.000000 500.000000"
 preserveAspectRatio="xMidYMid meet">

<g transform="translate(0.000000,500.000000) scale(0.100000,-0.100000)"
fill="#000000" stroke="none">
<path d="M2458 4282 c-14 -4 -353 -196 -753 -427 -609 -352 -730 -426 -748
-455 l-22 -35 -3 -843 c-2 -564 1 -856 8 -882 6 -21 23 -52 39 -67 16 -15 352
-215 747 -443 710 -410 720 -415 774 -415 54 0 65 5 650 344 327 190 642 371
700 404 126 70 166 99 191 141 18 29 19 52 17 411 l-3 380 -25 3 c-16 2 -67
-22 -147 -68 l-121 -70 -4 -218 c-4 -236 -7 -250 -65 -303 -23 -21 -1019 -602
-1120 -653 -18 -9 -52 -16 -76 -16 -48 0 -3 -24 -871 476 -277 159 -333 195
-355 228 l-26 40 -3 668 c-2 639 -2 671 17 712 10 24 34 54 52 68 19 14 282
169 584 344 542 314 551 318 605 318 54 0 67 -7 615 -323 308 -178 571 -333
584 -345 52 -46 55 -69 61 -390 4 -261 7 -300 21 -309 13 -8 45 6 145 64 l129
74 0 347 0 348 -35 34 c-19 19 -71 54 -115 79 -44 24 -365 209 -713 410 -636
367 -670 384 -734 369z"/>
<path d="M2450 3651 c-30 -10 -801 -454 -847 -488 -18 -13 -36 -35 -39 -49 -7
-29 10 -75 34 -90 49 -31 785 -455 820 -473 49 -25 111 -27 155 -5 18 9 163
92 322 185 160 92 298 171 308 175 16 6 17 -19 17 -405 l0 -411 -37 -24 c-21
-13 -168 -100 -328 -192 -275 -159 -293 -168 -350 -172 l-60 -3 -305 176
c-168 97 -316 188 -330 201 l-25 24 -5 272 -5 272 -125 73 c-69 40 -133 73
-142 73 -36 0 -39 -30 -36 -455 l3 -415 25 -24 c14 -13 230 -142 480 -287
l455 -264 65 0 65 1 458 266 c252 146 467 274 478 284 18 16 19 38 19 596 0
349 -4 586 -10 597 -12 23 -270 171 -297 171 -12 0 -144 -71 -295 -159 -367
-213 -370 -214 -432 -209 -42 4 -78 20 -193 87 -136 79 -160 101 -148 133 3 8
71 52 151 98 177 102 208 108 298 61 32 -17 65 -31 75 -31 22 0 252 134 263
153 4 8 6 22 3 29 -3 8 -89 63 -190 121 -188 110 -236 127 -295 108z"/>
</g>
</svg>
